{"title":"Betty Who -- Take Me When You Go (2014.Pop)","uid":11160760,"size":108421180,"categoryP":"audio","categoryS":"other","magnet":"?xt=urn:btih:8a42296121543876fdd46a6a21adcfe666656347&amp;dn=Betty+Who+--+Take+Me+When+You+Go+%282014.Pop%29&amp;tr=udp%3A%2F%2Ftracker.openbittorrent.com%3A80&amp;tr=udp%3A%2F%2Fopen.demonii.com%3A1337&amp;tr=udp%3A%2F%2Ftracker.coppersurfer.tk%3A6969&amp;tr=udp%3A%2F%2Fexodus.desync.com%3A6969","seeders":8,"leechers":0,"uploader":"MeRaDil","files":-1,"time":1412535455,"description":"BETTY WHO - TAKE ME WHEN YOU GO\n\n &lt;a href=&quot;\nhttp://ultraimg.com/images/BettyWho.png&quot; rel=&quot;nofollow&quot; target=&quot;_NEW&quot;&gt;\nhttp://ultraimg.com/images/BettyWho.png&lt;/a&gt;\n\n\niTunes Audio * Variable bitrate mode\n\nBETTY WHO - TAKE ME WHEN YOU GO\nGeneral\nComplete name                            : 01 Just Like Me.m4a\nFormat                                   : MPEG-4\nFormat profile                           : Apple audio with iTunes info\nCodec ID                                 : M4A \nFile size                                : 7.00 MiB\nDuration                                 : 3mn 38s\nOverall bit rate mode                    : Variable\nOverall bit rate                         : 269 Kbps\nAlbum                                    : Take Me When You Go\nAlbum/Performer                          : Betty Who\nTrack name                               : Just Like Me\nTrack name/More                          : Betty Who\nPerformer                                : Betty Who\nGenre                                    : Pop\nContentType                              : Music\nRecorded date                            : 2014\nEncoded date                             : UTC 2038-06-21 17:56:32\nTagged date                              : UTC 2014-10-03 10:15:08\nCopyright                                : Betty Who\nCover                                    : Yes\nMake                                     : RCA\noday                                     : 07-10-2014 Australia/USA\nartist url                               : http://www.bettywhomusic.com\nlabel                                    : RCA\nrelease                                  : Australia . october 7 . 2014\n\nAudio\nID                                       : 1\nFormat                                   : AAC\nFormat/Info                              : Advanced Audio Codec\nFormat profile                           : LC\nCodec ID                                 : 40\nDuration                                 : 3mn 38s\nBit rate mode                            : Variable\nBit rate                                 : 256 Kbps\nMaximum bit rate                         : 332 Kbps\nChannel(s)                               : 2 channels\nChannel positions                        : Front: L R\nSampling rate                            : 44.1 KHz\nCompression mode                         : Lossy\nStream size                              : 6.82 MiB (97%)\nLanguage                                 : English\nEncoded date                             : UTC 2038-06-21 17:56:32\nTagged date                              : UTC 2014-10-03 10:15:08\n\nGeneral\nComplete name                            : 02 High Society.m4a\nFormat                                   : MPEG-4\nFormat profile                           : Apple audio with iTunes info\nCodec ID                                 : M4A \nFile size                                : 8.20 MiB\nDuration                                 : 4mn 0s\nOverall bit rate mode                    : Variable\nOverall bit rate                         : 286 Kbps\nAlbum                                    : Take Me When You Go\nAlbum/Performer                          : Betty Who\nTrack name                               : High Society\nTrack name/More                          : Betty Who\nPerformer                                : Betty Who\nGenre                                    : Pop\nContentType                              : Music\nRecorded date                            : 2014\nEncoded date                             : UTC 1977-06-18 18:02:56\nTagged date                              : UTC 2014-10-03 10:15:11\nCopyright                                : Betty Who\nCover                                    : Yes\nMake                                     : RCA\noday                                     : 07-10-2014 Australia/USA\naurl                                     : http://www.bettywhomusic.com\nlabl                                     : RCA\nrelt                                     : Australia . october 7 . 2014\n\nAudio\nID                                       : 1\nFormat                                   : AAC\nFormat/Info                              : Advanced Audio Codec\nFormat profile                           : LC\nCodec ID                                 : 40\nDuration                                 : 4mn 0s\nBit rate mode                            : Variable\nBit rate                                 : 279 Kbps\nNominal bit rate                         : 256 Kbps\nMaximum bit rate                         : 355 Kbps\nChannel(s)                               : 2 channels\nChannel positions                        : Front: L R\nSampling rate                            : 44.1 KHz\nCompression mode                         : Lossy\nStream size                              : 8.01 MiB (98%)\nLanguage                                 : English\nEncoded date                             : UTC 1977-06-18 18:02:56\nTagged date                              : UTC 2014-10-03 10:15:11\n\nGeneral\nComplete name                            : 03 Glory Days.m4a\nFormat                                   : MPEG-4\nFormat profile                           : Apple audio with iTunes info\nCodec ID                                 : M4A \nFile size                                : 8.01 MiB\nDuration                                 : 4mn 2s\nOverall bit rate mode                    : Variable\nOverall bit rate                         : 277 Kbps\nAlbum                                    : Take Me When You Go\nAlbum/Performer                          : Betty Who\nTrack name                               : Glory Days\nTrack name/More                          : Betty Who\nPerformer                                : Betty Who\nGenre                                    : Pop\nContentType                              : Music\nRecorded date                            : 2014\nEncoded date                             : UTC 1971-06-27 17:35:12\nTagged date                              : UTC 2014-10-03 10:15:15\nCopyright                                : Betty Who\nCover                                    : Yes\nMake                                     : RCA\noday                                     : 07-10-2014 Australia/USA\naurl                                     : http://www.bettywhomusic.com\nlabl                                     : RCA\nrelt                                     : Australia . october 7 . 2014\n\nAudio\nID                                       : 1\nFormat                                   : AAC\nFormat/Info                              : Advanced Audio Codec\nFormat profile                           : LC\nCodec ID                                 : 40\nDuration                                 : 4mn 2s\nBit rate mode                            : Variable\nBit rate                                 : 271 Kbps\nNominal bit rate                         : 256 Kbps\nMaximum bit rate                         : 303 Kbps\nChannel(s)                               : 2 channels\nChannel positions                        : Front: L R\nSampling rate                            : 44.1 KHz\nCompression mode                         : Lossy\nStream size                              : 7.82 MiB (98%)\nLanguage                                 : English\nEncoded date                             : UTC 1971-06-27 17:35:12\nTagged date                              : UTC 2014-10-03 10:15:15\n\nGeneral\nComplete name                            : 04 Somebody Loves You.m4a\nFormat                                   : MPEG-4\nFormat profile                           : Apple audio with iTunes info\nCodec ID                                 : M4A \nFile size                                : 6.96 MiB\nDuration                                 : 3mn 30s\nOverall bit rate mode                    : Variable\nOverall bit rate                         : 277 Kbps\nAlbum                                    : Take Me When You Go\nAlbum/Performer                          : Betty Who\nTrack name                               : Somebody Loves You\nTrack name/More                          : Betty Who\nPerformer                                : Betty Who\nGenre                                    : Pop\nContentType                              : Music\nRecorded date                            : 2014\nEncoded date                             : UTC 2002-12-25 10:15:44\nTagged date                              : UTC 2014-10-03 10:15:17\nCopyright                                : Betty Who\nCover                                    : Yes\nMake                                     : RCA\noday                                     : 07-10-2014 Australia/USA\naurl                                     : http://www.bettywhomusic.com\nlabl                                     : RCA\nrelt                                     : Australia . october 7 . 2014\n\nAudio\nID                                       : 1\nFormat                                   : AAC\nFormat/Info                              : Advanced Audio Codec\nFormat profile                           : LC\nCodec ID                                 : 40\nDuration                                 : 3mn 30s\nBit rate mode                            : Variable\nBit rate                                 : 256 Kbps\nMaximum bit rate                         : 302 Kbps\nChannel(s)                               : 2 channels\nChannel positions                        : Front: L R\nSampling rate                            : 44.1 KHz\nCompression mode                         : Lossy\nStream size                              : 6.77 MiB (97%)\nLanguage                                 : English\nEncoded date                             : UTC 2002-12-25 10:15:44\nTagged date                              : UTC 2014-10-03 10:15:17\n\nEtc....\n &lt;a href=&quot;\nhttp://en.wikipedia.org/wiki/Take_Me_When_You_Go&quot; rel=&quot;nofollow&quot; target=&quot;_NEW&quot;&gt;\nhttp://en.wikipedia.org/wiki/Take_Me_When_You_Go&lt;/a&gt;\n \n\n","torrent":{"xt":"urn:btih:8a42296121543876fdd46a6a21adcfe666656347","amp;dn":"Betty+Who+--+Take+Me+When+You+Go+%282014.Pop%29","amp;tr":["udp%3A%2F%2Ftracker.openbittorrent.com%3A80","udp%3A%2F%2Fopen.demonii.com%3A1337","udp%3A%2F%2Ftracker.coppersurfer.tk%3A6969","udp%3A%2F%2Fexodus.desync.com%3A6969"],"infoHash":"8a42296121543876fdd46a6a21adcfe666656347","infoHashBuffer":{"type":"Buffer","data":[138,66,41,97,33,84,56,118,253,212,106,106,33,173,207,230,102,101,99,71]},"announce":[],"urlList":[]}}